<svg xmlns="http://www.w3.org/2000/svg" viewBox="687.41 360.04 93.85 67.09" fill="none">
  <!-- Main left shape — full black (the "darker" element) -->
  <path fill="black" fill-opacity="0.5"
    d="M35.46 0.12 L0 62.27 0.85 63.49 29.37 63.61 31.68 62.27 50.82 29.13 51.06 25.71 36.56 0 35.46 0.12 z"
    transform="matrix(1,0,0,1,687.9112844260297,363.0270533755789)"/>
  <!-- Right shapes — semi-transparent black (the "lighter gray" elements) -->
  <path fill="black" fill-opacity="0.35"
    d="M0 0 L29.73 0 31.32 1.1 45.45 25.35 45.45 29.37 32.17 52.89 29.73 54.59 14.99 27.42"
    transform="matrix(1,0,0,1,735.3156227150865,362.661467219108)"/>
  <path fill="black" fill-opacity="0.35"
    d="M30.1 26.44 L0.61 26.57 0 25.47 14.87 0 30.1 26.44 z"
    transform="matrix(1,0,0,1,735.1937606629297,390.93346331952233)"/>
  <path fill="black" fill-opacity="0.35" stroke="black" stroke-opacity="0.35" stroke-width="2" stroke-linecap="round" stroke-linejoin="round"
    d="M0.15 4.34 C0.15 4.34 0.147 4.35 0.15 4.36 0.161 4.399 0.267 4.542 0.32 4.63 0.37 4.712 0.407 4.789 0.46 4.87 0.519 4.959 0.601 5.052 0.66 5.14 0.713 5.219 0.754 5.304 0.8 5.37 0.837 5.424 0.874 5.464 0.91 5.51 0.944 5.554 0.974 5.597 1.01 5.64 1.047 5.684 1.091 5.728 1.13 5.77 1.168 5.811 1.201 5.843 1.24 5.89 1.29 5.951 1.35 6.035 1.4 6.11 1.45 6.185 1.509 6.278 1.54 6.34 1.58 6.44 1.603 6.484 1.639 6.534 1.67 6.58 1.702 6.627 1.735 6.667 1.77 6.72 1.814 6.787 1.864 6.864 1.91 6.95 1.965 7.053 2.024 7.21 2.07 7.3 2.15 7.44 2.188 7.507 2.237 7.592 2.28 7.67 2.324 7.749 2.367 7.829 2.41 7.91 2.454 7.992 2.508 8.079 2.54 8.16 2.6 8.37 2.628 8.453 2.674 8.546 2.7 8.63 2.723 8.706 2.75 8.85 2.767 8.906 2.793 8.944 2.81 9 2.86 9.22 2.884 9.304 2.929 9.411 2.95 9.48 2.98 9.59 2.997 9.635 3.025 9.684 3.05 9.73 3.075 9.777 3.1 9.817 3.13 9.87 3.168 9.939 3.226 10.031 3.26 10.11 3.33 10.32 3.352 10.375 3.4 10.47 3.357 10.347 3.33 10.28 3.298 10.202 3.259 10.112 3.22 10.03 3.182 9.949 3.131 9.879 3.1 9.79 3.065 9.689 3.03 9.45 3.004 9.357 2.962 9.275 2.94 9.19 2.9 8.96 2.88 8.878 2.839 8.778 2.82 8.71 2.79 8.59 2.782 8.55 2.77 8.47 2.758 8.425 2.736 8.374 2.72 8.33 2.68 8.22 2.656 8.154 2.622 8.04 2.59 7.97 2.51 7.83 2.484 7.766 2.45 7.61 2.423 7.529 2.393 7.444 2.35 7.36 2.302 7.267 2.225 7.187 2.17 7.08 2.103 6.95 2.044 6.773 1.99 6.63 1.942 6.501 1.86 6.26 1.804 6.132 1.72 6.005 1.66 5.88 1.51 5.53 1.461 5.411 1.41 5.264 1.37 5.17 1.3 5.02 1.264 4.949 1.212 4.86 1.17 4.78 1.05 4.54 1.019 4.486 0.96 4.4 0.94 4.364 0.91 4.3 0.887 4.257 0.83 4.16 0.78 4.06 0.757 4.017 0.7 3.92 0.683 3.885 0.66 3.82 0.637 3.776 0.57 3.68 0.53 3.58 0.509 3.537 0.45 3.44 0.412 3.371 0.352 3.28 0.32 3.2 0.291 3.127 0.26 2.98 0.23 2.94 0.207 2.898 0.172 2.802 0.15 2.73 0.1 2.5 0.136 2.413 0.15 2.37 0.18 2.25 0.192 2.186 0.2 2.084 0.21 2.02 0.23 1.9 0.237 1.834 0.24 1.66 0.243 1.578 0.247 1.492 0.25 1.41 0.253 1.329 0.258 1.251 0.26 1.17 0.262 1.088 0.26 0.92 0.262 0.839 0.268 0.76 0.27 0.68 0.272 0.6 0.278 0.475 0.27 0.44 0.26 0.42 0.247 0.394 0.216 0.326 0.19 0.28 0.163 0.233 0.131 0.186 0.1 0.14 0.068 0.093 0 0 0 0"
    transform="matrix(1,0,0,1,750.6440499951959,388.1807363053112)"/>
  <path fill="black" fill-opacity="0.35" stroke="black" stroke-opacity="0.35" stroke-width="2" stroke-linecap="round" stroke-linejoin="round"
    d="M0 0 C-0.012 0.247 0 0.37 0.012 0.494 0.043 0.617 0.07 0.74 0.097 0.864 0.129 1.017 0.16 1.11 0.18 1.169 0.203 1.206 0.22 1.25 0.235 1.289 0.243 1.322 0.26 1.36 0.279 1.404 0.311 1.456 0.33 1.5 0.347 1.538 0.37 1.61"
    transform="matrix(1,0,0,1,760.0491370148769,405.5569095783573)"/>
</svg>
